<svg xmlns="http://www.w3.org/2000/svg" width="22" height="22" viewBox="0 0 22 22"><defs><style>.a{fill:none;stroke:#4a5058;stroke-linecap:round;stroke-linejoin:round;stroke-width:2px;}.b{fill:rgba(255,255,255,0);}</style></defs><g transform="translate(-35 -964)"><g transform="translate(-33.893 -5025.239)"><path class="a" d="M86.526,6011.59c1.612.528,2.606,1.253,2.606,2.051,0,1.619-4.083,2.931-9.119,2.931s-9.119-1.312-9.119-2.931c0-.8.994-1.523,2.606-2.051" transform="translate(0 -7.095)"/><g transform="translate(74.429 5991.239)"><path class="a" d="M81.905,5991.239a5.582,5.582,0,0,0-5.583,5.583c0,5.583,5.583,10.05,5.583,10.05s5.584-4.466,5.584-10.05A5.583,5.583,0,0,0,81.905,5991.239Z" transform="translate(-76.322 -5991.239)"/><circle class="a" cx="1.954" cy="1.954" r="1.954" transform="translate(3.629 3.257)"/></g></g><rect class="b" width="22" height="22" transform="translate(35 964)"/></g></svg>