<svg xmlns="http://www.w3.org/2000/svg" width="32" height="32" viewBox="0 0 32 32"><defs><style>.a,.b{fill:none;}.b{stroke:#fff;stroke-linecap:round;stroke-miterlimit:10;stroke-width:2px;}.c{fill:rgba(255,255,255,0);}</style></defs><g transform="translate(-332 -779)"><g transform="translate(333 780)"><rect class="a" width="30" height="30"/><g transform="translate(4 1)"><path class="b" d="M18,28H3a3,3,0,0,1-3-3V9L9,0H19a3,3,0,0,1,3,3V15"/><path class="b" d="M0,9H7A2,2,0,0,0,9,7V0"/><g transform="translate(11 14)"><circle class="b" cx="7" cy="7" r="7"/><path class="b" d="M0,1H4" transform="translate(5 6)"/><path class="b" d="M0,.5H4" transform="translate(7.5 5) rotate(90)"/></g></g></g><rect class="c" width="32" height="32" transform="translate(332 779)"/></g></svg>