<svg xmlns="http://www.w3.org/2000/svg" width="22.344" height="20.019" viewBox="0 0 22.344 20.019"><defs><style>.a{fill:none;stroke:#2d5795;stroke-linecap:round;stroke-miterlimit:10;stroke-width:2px;}</style></defs><g transform="translate(-24.727 -788.906)"><path class="a" d="M0,2.18A2.18,2.18,0,0,1,2.18,0H18.164a2.18,2.18,0,0,1,2.18,2.18V12.352a2.18,2.18,0,0,1-2.18,2.18H13.818a1.453,1.453,0,0,0-1.175.6l-1.883,2.59a.727.727,0,0,1-1.175,0L7.7,15.13a1.453,1.453,0,0,0-1.175-.6H2.18A2.18,2.18,0,0,1,0,12.352Z" transform="translate(25.727 789.906)"/></g></svg>