<svg xmlns="http://www.w3.org/2000/svg" width="68" height="68" viewBox="0 0 68 68"><defs><style>.a{fill:rgba(255,255,255,0);}.b{fill:#4a5058;}.c{fill:#fad9ba;}.d{fill:#fff;}.e{fill:#2eb9ae;}.f{fill:#62355c;}.g{fill:#938993;}</style></defs><g transform="translate(-173 -272)"><rect class="a" width="68" height="68" transform="translate(173 272)"/><g transform="translate(2 4.127)"><g transform="translate(4 -0.614)"><g transform="translate(174 268.487)"><path class="b" d="M274.884,346.034a1.153,1.153,0,0,0-.339-.034H240.693a1.153,1.153,0,0,0-.339.034A1.689,1.689,0,0,0,239,347.693v11.849a14.4,14.4,0,0,0,.068,1.49,18.667,18.667,0,0,0,8.023,13.863h.017a13.208,13.208,0,0,0,1.2.779,18.66,18.66,0,0,0,18.619,0,13.211,13.211,0,0,0,1.2-.779h.017a18.667,18.667,0,0,0,8.023-13.863,14.418,14.418,0,0,0,.068-1.49V347.693A1.689,1.689,0,0,0,274.884,346.034Zm-2.031,13.507a15.254,15.254,0,0,1-7.617,13.186,15.465,15.465,0,0,1-15.234,0,15.254,15.254,0,0,1-7.617-13.186V349.385h30.468Z" transform="translate(-230.537 -329.073)"/><path class="c" d="M271.468,348v10.156a15.254,15.254,0,0,1-7.617,13.186,15.465,15.465,0,0,1-15.234,0A15.254,15.254,0,0,1,241,358.156V348Z" transform="translate(-229.152 -327.688)"/><path class="b" d="M271.594,363.118a16.419,16.419,0,0,0-2.048-.118H252.619a16.42,16.42,0,0,0-2.048.118A18.628,18.628,0,0,0,234,381.619v1.693A1.7,1.7,0,0,0,235.693,385h50.78a1.7,1.7,0,0,0,1.693-1.693v-1.693A18.628,18.628,0,0,0,271.594,363.118Zm-34.208,18.5a15.257,15.257,0,0,1,15.234-15.234h16.927a15.257,15.257,0,0,1,15.234,15.234Z" transform="translate(-234 -317.299)"/><path class="d" d="M283.394,380.234H236A15.257,15.257,0,0,1,251.234,365H268.16A15.257,15.257,0,0,1,283.394,380.234Z" transform="translate(-232.615 -315.913)"/><g transform="translate(18.619 45.702)"><path class="b" d="M253.463,379.926a1.694,1.694,0,0,1-1.515-.936l-6.771-13.541A1.693,1.693,0,0,1,246.693,363h13.541a1.692,1.692,0,0,1,1.515,2.449l-6.771,13.541A1.694,1.694,0,0,1,253.463,379.926Zm-4.032-13.541,4.032,8.064,4.032-8.064Z" transform="translate(-245 -363)"/></g><path class="b" d="M262.814,336h-9A15.827,15.827,0,0,0,238,351.809v2.81a1.7,1.7,0,0,0,1.693,1.693h37.238a1.7,1.7,0,0,0,1.693-1.693v-2.81A15.827,15.827,0,0,0,262.814,336Zm-21.429,16.927v-1.117a12.432,12.432,0,0,1,12.424-12.424h9a12.432,12.432,0,0,1,12.424,12.424v1.117Z" transform="translate(-231.229 -336)"/><path class="d" d="M273.853,350.424v1.117H240v-1.117A12.432,12.432,0,0,1,252.424,338h9A12.432,12.432,0,0,1,273.853,350.424Z" transform="translate(-229.844 -334.615)"/><g transform="translate(22.004 8.463)"><path class="e" d="M255.463,344.385h-6.771a1.693,1.693,0,1,1,0-3.385h6.771a1.693,1.693,0,1,1,0,3.385Z" transform="translate(-247 -341)"/></g><g transform="translate(25.389 5.078)"><path class="e" d="M250.693,349.156A1.693,1.693,0,0,1,249,347.463v-6.771a1.693,1.693,0,0,1,3.385,0v6.771A1.693,1.693,0,0,1,250.693,349.156Z" transform="translate(-249 -339)"/></g><g transform="translate(18.619 57.55)"><path class="f" d="M245,370" transform="translate(-245 -370)"/></g><g transform="translate(8.463 57.55)"><path class="f" d="M239,370" transform="translate(-239 -370)"/></g><path class="b" d="M242.771,346a1.153,1.153,0,0,0-.339.034,6.449,6.449,0,0,0-3.047.88A6.737,6.737,0,0,0,236,352.771v1.693a6.755,6.755,0,0,0,5.146,6.568,6.478,6.478,0,0,0,1.625.2,1.7,1.7,0,0,0,1.693-1.693V347.693A1.7,1.7,0,0,0,242.771,346Zm-3.385,8.463v-1.693a3.358,3.358,0,0,1,1.693-2.928v7.549A3.358,3.358,0,0,1,239.385,354.463Z" transform="translate(-232.615 -329.073)"/><path class="c" d="M239.693,348.27v7.549A3.358,3.358,0,0,1,238,352.891V351.2A3.358,3.358,0,0,1,239.693,348.27Z" transform="translate(-231.229 -327.501)"/><path class="b" d="M264.078,346.914a6.449,6.449,0,0,0-3.047-.88,1.153,1.153,0,0,0-.339-.034A1.7,1.7,0,0,0,259,347.693v11.849a1.7,1.7,0,0,0,1.693,1.693,6.478,6.478,0,0,0,1.625-.2,6.755,6.755,0,0,0,5.146-6.568v-1.693A6.737,6.737,0,0,0,264.078,346.914Zm0,7.549a3.358,3.358,0,0,1-1.693,2.928v-7.549a3.358,3.358,0,0,1,1.693,2.928Z" transform="translate(-216.683 -329.073)"/><path class="c" d="M262.693,351.2v1.693A3.358,3.358,0,0,1,261,355.819V348.27A3.358,3.358,0,0,1,262.693,351.2Z" transform="translate(-215.298 -327.501)"/><g transform="translate(6.771 45.702)"><path class="g" d="M251.541,379.926h-1.693a1.693,1.693,0,0,1,0-3.385v-5.924a4.232,4.232,0,1,0-8.463,0v5.924a1.693,1.693,0,0,1,0,3.385h-1.693A1.693,1.693,0,0,1,238,378.234v-7.617a7.617,7.617,0,0,1,15.234,0v7.617A1.693,1.693,0,0,1,251.541,379.926Z" transform="translate(-238 -363)"/></g><g transform="translate(35.546 52.472)"><path class="g" d="M260.078,377.156a5.078,5.078,0,1,1,5.078-5.078A5.084,5.084,0,0,1,260.078,377.156Zm0-6.771a1.693,1.693,0,1,0,1.693,1.693A1.694,1.694,0,0,0,260.078,370.385Z" transform="translate(-255 -367)"/></g><g transform="translate(38.931 45.702)"><path class="g" d="M258.693,373.156A1.692,1.692,0,0,1,257,371.463v-6.771a1.693,1.693,0,0,1,3.385,0v6.771A1.692,1.692,0,0,1,258.693,373.156Z" transform="translate(-257 -363)"/></g></g></g></g></g></svg>