<svg xmlns="http://www.w3.org/2000/svg" width="14.63" height="14.63" viewBox="0 0 14.63 14.63"><defs><style>.a{fill:#bfbfbf;}</style></defs><g transform="translate(-136.372 -306.58)"><path class="a" d="M16.055-70.429a7.369,7.369,0,0,0,7.315-7.315,7.371,7.371,0,0,0-7.322-7.315A7.363,7.363,0,0,0,8.74-77.744,7.374,7.374,0,0,0,16.055-70.429Zm-.072-9.933a.966.966,0,0,1-.968-.975.966.966,0,0,1,.968-.975.96.96,0,0,1,.961.975A.96.96,0,0,1,15.983-80.361Zm-1.226,6.7a.524.524,0,0,1-.545-.531.531.531,0,0,1,.545-.524h.911v-3.371h-.789a.522.522,0,0,1-.538-.531.53.53,0,0,1,.538-.524H16.27c.38,0,.581.273.581.674v3.751h.911a.531.531,0,0,1,.545.524.524.524,0,0,1-.545.531Z" transform="translate(127.632 391.639)"/></g></svg>