<svg xmlns="http://www.w3.org/2000/svg" width="50" height="50" viewBox="0 0 50 50"><defs><style>.a{fill:#1877f2;}.b{fill:#fff;}</style></defs><g transform="translate(-78 -763)"><g transform="translate(78 763)"><path class="a" d="M50,25A25,25,0,1,0,21.094,49.7V32.227H14.746V25h6.348V19.492c0-6.266,3.732-9.727,9.443-9.727a38.444,38.444,0,0,1,5.6.488v6.152H32.98c-3.106,0-4.074,1.927-4.074,3.9V25H35.84l-1.108,7.227H28.906V49.7A25.006,25.006,0,0,0,50,25Z"/><path class="b" d="M321.985,222.461l1.108-7.227H316.16v-4.69c0-1.977.969-3.9,4.074-3.9h3.152v-6.152a38.444,38.444,0,0,0-5.6-.488c-5.71,0-9.443,3.461-9.443,9.727v5.508H302v7.227h6.348v17.47a25.265,25.265,0,0,0,7.813,0v-17.47Z" transform="translate(-287.254 -190.234)"/></g></g></svg>