<svg xmlns="http://www.w3.org/2000/svg" xmlns:xlink="http://www.w3.org/1999/xlink" width="27" height="27" viewBox="0 0 27 27"><defs><style>.a,.b{fill:none;stroke:#4a5058;stroke-width:1.5px;}.b{stroke-linecap:round;stroke-linejoin:round;}.c{clip-path:url(#a);}</style><clipPath id="a"><rect class="a" width="27" height="27" transform="translate(0 0.493)"/></clipPath></defs><g transform="translate(0 -0.493)"><line class="b" x2="9" transform="translate(5 5.493)"/><line class="b" x2="9" transform="translate(5 9.493)"/><line class="b" x2="9" transform="translate(14 18.493)"/><line class="b" x2="2" transform="translate(21 14.493)"/><g class="c"><path class="b" d="M4.666,14.747H2.808A1.842,1.842,0,0,1,1,12.872v-10A1.842,1.842,0,0,1,2.808,1H15.746A1.815,1.815,0,0,1,17.5,2.874v10a1.815,1.815,0,0,1-1.749,1.874H7.582L4.666,17.5Z" transform="translate(-0.084 -0.084)"/><path class="b" d="M11,19.248v3.666a1.8,1.8,0,0,0,1.768,1.833h8.008L23.83,27.5V24.747h1.833A1.854,1.854,0,0,0,27.5,22.872v-10A1.854,1.854,0,0,0,25.663,11H22" transform="translate(-0.919 -0.919)"/></g></g></svg>