<svg xmlns="http://www.w3.org/2000/svg" width="32.342" height="34.242" viewBox="0 0 32.342 34.242"><defs><style>.a{fill:none;stroke:#365791;stroke-linecap:round;stroke-linejoin:round;stroke-width:2px;}</style></defs><g transform="translate(-191 -342.083)"><g transform="translate(118.498 -2961.075)"><path class="a" d="M38.881,2473.5l-11.36,11.361-4.066,1.35,1.351-4.066,11.361-11.359Z" transform="translate(64.963 838.703)"/><path class="a" d="M33.532,2495.792a2.3,2.3,0,0,1-2.3,2.3H12.805a2.3,2.3,0,0,1-2.3-2.3V2470.46a2.3,2.3,0,0,1,2.3-2.3h4.606" transform="translate(63 838.305)"/><path class="a" d="M24.5,2468.156h4.2a2.3,2.3,0,0,1,2.3,2.3" transform="translate(65.121 838.305)"/><line class="a" x2="5.758" transform="translate(78.108 3319.127)"/><line class="a" x2="10.364" transform="translate(78.108 3314.521)"/><rect class="a" width="9.212" height="4.606" transform="translate(80.411 3304.158)"/><line class="a" y1="8.061" transform="translate(96.533 3326.036)"/></g></g></svg>