<svg xmlns="http://www.w3.org/2000/svg" width="50" height="50" viewBox="0 0 50 50"><defs><style>.a{fill:#007ab9;}.b{fill:#f1f2f2;}</style></defs><g transform="translate(-218.196 -763)"><g transform="translate(218.196 763.001)"><circle class="a" cx="25" cy="25" r="25" transform="translate(0 -0.001)"/><g transform="translate(12.063 10.681)"><path class="b" d="M54.942,40.3V50.605H48.967V40.989c0-2.415-.863-4.063-3.026-4.063a3.269,3.269,0,0,0-3.065,2.185,4.09,4.09,0,0,0-.2,1.456V50.6H36.7s.08-16.287,0-17.973h5.977v2.547c-.012.02-.029.04-.04.059h.04v-.059a5.933,5.933,0,0,1,5.386-2.969c3.932,0,6.879,2.569,6.879,8.088ZM30.45,23.969a3.114,3.114,0,1,0-.078,6.211h.039a3.115,3.115,0,1,0,.04-6.211ZM27.423,50.605H33.4V32.632H27.423Z" transform="translate(-27.068 -23.969)"/></g></g></g></svg>