<svg xmlns="http://www.w3.org/2000/svg" width="21" height="21" viewBox="0 0 21 21"><defs><style>.a{fill:rgba(255,255,255,0);}.b{fill:#4a5058;}</style></defs><g transform="translate(-33 -259)"><rect class="a" width="21" height="21" transform="translate(33 259)"/><g transform="translate(17.078 344.28)"><path class="b" d="M22.092-65.28h8.874c1.453,0,2.17-.727,2.17-2.306V-74.26c0-1.376-.552-2.1-1.676-2.257v-2.344c0-3.652-2.393-5.415-4.931-5.415S21.6-82.514,21.6-78.862v2.344c-1.124.155-1.676.882-1.676,2.257v6.675C19.922-66.007,20.639-65.28,22.092-65.28Zm1.066-13.785c0-2.432,1.56-3.72,3.371-3.72S29.9-81.5,29.9-79.065v2.519H23.158ZM22.15-66.733c-.446,0-.668-.2-.668-.746v-6.878c0-.543.223-.736.668-.736h8.767c.446,0,.659.194.659.736v6.878c0,.543-.213.746-.659.746Z"/></g></g></svg>