<svg xmlns="http://www.w3.org/2000/svg" width="32.493" height="28.137" viewBox="0 0 32.493 28.137"><defs><style>.a{fill:none;stroke:#4a5058;stroke-linecap:round;stroke-linejoin:round;stroke-width:2px;}</style></defs><g transform="translate(-116.86 -354.6)"><path class="a" d="M126.759,355.6h-6.721a2.177,2.177,0,0,0-2.178,2.178v21.781a2.178,2.178,0,0,0,2.178,2.178h26.137a2.179,2.179,0,0,0,2.178-2.178V361.045a2.178,2.178,0,0,0-2.178-2.178H131.83a2.179,2.179,0,0,1-1.54-.638l-1.992-1.992A2.175,2.175,0,0,0,126.759,355.6Z" transform="translate(0 0)"/><path class="a" d="M130.216,376.668h4.356v-4.356h4.356v-4.356h-4.356V363.6h-4.356v4.356H125.86v4.356h4.356v0H125.86v-4.356h4.356V363.6h4.356v4.356h4.356v4.356h-4.356v4.356" transform="translate(0.712 0.712)"/></g></svg>