<svg xmlns="http://www.w3.org/2000/svg" width="20.829" height="22.039" viewBox="0 0 20.829 22.039"><defs><style>.a{fill:none;stroke:#4a5058;stroke-linecap:round;stroke-linejoin:round;stroke-width:1.5px;}</style></defs><g transform="translate(0.75 0.75)"><path class="a" d="M33.282,2472.513l-7.236,7.237-2.59.86.86-2.59,7.237-7.236Z" transform="translate(-13.953 -2467.389)"/><path class="a" d="M25.173,2485.761a1.468,1.468,0,0,1-1.467,1.467H11.969a1.468,1.468,0,0,1-1.467-1.467v-16.138a1.468,1.468,0,0,1,1.467-1.467H14.9" transform="translate(-10.502 -2466.689)"/><path class="a" d="M24.5,2468.156H27.18a1.467,1.467,0,0,1,1.467,1.467" transform="translate(-14.232 -2466.689)"/><line class="a" x2="3.668" transform="translate(2.934 9.536)"/><line class="a" x2="6.602" transform="translate(2.934 6.602)"/><rect class="a" width="5.868" height="2.934" transform="translate(4.401)"/><line class="a" y1="5.135" transform="translate(14.671 13.937)"/></g></svg>