<svg xmlns="http://www.w3.org/2000/svg" width="24.756" height="23.5" viewBox="0 0 24.756 23.5"><defs><style>.a{fill:none;stroke:#4a5058;stroke-linecap:round;stroke-linejoin:round;stroke-width:1.5px;}</style></defs><g transform="translate(-9.752 -5806.406)"><line class="a" y2="12" transform="translate(10.502 5817.156)"/><path class="a" d="M13.5,5817.953c4.153-.831,8.306-4.545,8.306-9.136v-.264a1.4,1.4,0,0,1,1.4-1.4h.264a1.661,1.661,0,0,1,1.661,1.661,22.984,22.984,0,0,1-.831,6.645h8.306a1.661,1.661,0,1,1,0,3.321h-.8a1.644,1.644,0,0,1,1.628,1.644v.065a1.612,1.612,0,0,1-1.612,1.612h-.846a1.644,1.644,0,0,1,1.628,1.644v.065a1.612,1.612,0,0,1-1.612,1.612h-.846a1.644,1.644,0,0,1,1.628,1.644v.066a1.612,1.612,0,0,1-1.612,1.612H19.316c-3.322,0-3.322-.83-5.814-.83Z" transform="translate(-0.508)"/></g></svg>