<svg xmlns="http://www.w3.org/2000/svg" xmlns:xlink="http://www.w3.org/1999/xlink" width="22" height="22" viewBox="0 0 22 22"><defs><style>.a,.c{fill:none;stroke:#4a5058;}.b{clip-path:url(#a);}.c{stroke-linecap:round;stroke-linejoin:round;stroke-width:1.5px;}</style><clipPath id="a"><rect class="a" width="22" height="22" transform="translate(0 0)"/></clipPath></defs><g transform="translate(-39 -317)"><g class="b" transform="translate(39 317)"><path class="c" d="M5.07,1a3.355,3.355,0,0,1,.671.065,3.9,3.9,0,0,1,1.907.847,1.6,1.6,0,0,1,.556.994l.514,3.25A1.614,1.614,0,0,1,8.5,7.271,4,4,0,0,1,5.74,9.076a12.266,12.266,0,0,0,7.549,7.549,4,4,0,0,1,1.806-2.756,1.614,1.614,0,0,1,1.115-.221l3.25.514a1.6,1.6,0,0,1,.994.557,3.9,3.9,0,0,1,.847,1.907,3.355,3.355,0,0,1,.065.671,4.068,4.068,0,0,1-3.652,4.056c-.137.007-.275.014-.419.014s-.28-.007-.417-.014A16.27,16.27,0,0,1,1.014,5.488C1.007,5.351,1,5.214,1,5.071s.007-.282.014-.419A4.068,4.068,0,0,1,5.07,1Z" transform="translate(-0.185 -0.185)"/></g></g></svg>