<svg xmlns="http://www.w3.org/2000/svg" xmlns:xlink="http://www.w3.org/1999/xlink" width="18" height="23" viewBox="0 0 18 23"><defs><style>.a,.c{fill:none;stroke:#4a5058;stroke-width:1.5px;}.b{clip-path:url(#a);}.c{stroke-linecap:round;stroke-linejoin:round;}</style><clipPath id="a"><rect class="a" width="18" height="23" transform="translate(0 -0.302)"/></clipPath></defs><g transform="translate(0 -0.198)"><g class="b" transform="translate(0 0.5)"><path class="c" d="M14.526,1.665l2.454,2.453a2.276,2.276,0,0,1,.664,1.605V19.915a2.27,2.27,0,0,1-2.27,2.27H3.27A2.27,2.27,0,0,1,1,19.915V3.27A2.27,2.27,0,0,1,3.27,1h9.652A2.268,2.268,0,0,1,14.526,1.665Z" transform="translate(-0.243 -0.697)"/><line class="c" x2="6" transform="translate(4 7.698)"/><line class="c" x2="10" transform="translate(4 12.698)"/><line class="c" x2="10" transform="translate(4 17.698)"/></g></g></svg>