<svg xmlns="http://www.w3.org/2000/svg" width="23.491" height="18.426" viewBox="0 0 23.491 18.426"><defs><style>.a{fill:rgba(0,0,0,0);stroke:#2d5795;stroke-linecap:round;stroke-miterlimit:10;stroke-width:1.5px;}</style></defs><g transform="translate(-23.25 -1316.25)"><path class="a" d="M10660.105-6707.266l-1.2-1.65a.924.924,0,0,0-.747-.38h-2.771a1.388,1.388,0,0,1-1.388-1.388v-6.481a1.388,1.388,0,0,1,1.388-1.388H10664V-6723a1,1,0,0,1,1-1h9.991a1,1,0,0,1,1,1v7.59a1,1,0,0,1-1,1h-8.03v3.722a1.39,1.39,0,0,1-1.391,1.388h-2.768a.929.929,0,0,0-.75.38l-1.2,1.65a.457.457,0,0,1-.373.191A.461.461,0,0,1,10660.105-6707.266Z" transform="translate(-10630 8041)"/></g></svg>