<svg xmlns="http://www.w3.org/2000/svg" width="512" height="512" fill-rule="evenodd" clip-rule="evenodd" image-rendering="optimizeQuality" shape-rendering="geometricPrecision" text-rendering="geometricPrecision" viewBox="0 0 512 512"><rect width="512" height="512" fill="none"/><polygon fill="#24cf64" points="256 106 321 143 386 181 386 256 386 331 321 369 256 406 191 369 126 331 126 256 126 181 191 143"/><polygon fill="#1ac350" points="256 406 191 369 126 331 126 256 126 181 191 143 256 106"/><polygon fill="#24cf64" points="256 131 310 162 364 193 364 256 364 319 310 350 256 381 202 350 148 319 148 256 148 193 202 162"/><path fill="#fdfefd" d="M188 318c4,-1 23,-6 29,-8 8,-2 5,-2 13,1 19,8 42,7 59,-3 9,-5 10,-6 16,-12 27,-27 26,-71 -1,-97 -12,-11 -29,-21 -53,-19 -41,3 -70,42 -62,81 2,11 4,12 8,20 0,2 -1,5 -2,7 -1,5 -2,10 -4,15 -1,4 -3,10 -3,15zm16 -17c3,0 8,-2 12,-3 2,0 4,-1 6,-1 2,-1 3,-2 5,0 6,3 14,6 22,7 16,2 34,-3 45,-13 5,-5 9,-10 13,-17 3,-7 6,-14 6,-24 0,-14 -4,-28 -13,-38l-12 -11c-10,-7 -23,-10 -35,-10 -42,3 -68,49 -45,87 2,4 1,3 -1,11 -1,4 -2,9 -3,12zm27 -84c-4,1 -7,6 -9,10 -1,6 0,11 2,16 3,7 11,17 16,21 6,6 12,10 22,14 5,2 9,4 16,3 7,-1 13,-7 13,-15 0,-3 -3,-3 -5,-4 -2,-1 -11,-7 -13,-5 -1,0 -4,4 -4,5 -2,2 -3,4 -6,3 -8,-3 -16,-9 -21,-16 -5,-8 -3,-6 1,-11 3,-4 1,-6 -2,-14 -2,-4 -2,-9 -10,-7z"/></svg>