<svg xmlns="http://www.w3.org/2000/svg" width="21" height="21" viewBox="0 0 21 21"><defs><style>.a{fill:rgba(255,255,255,0);}.b{fill:none;stroke:#4a5058;stroke-linecap:round;stroke-linejoin:round;stroke-width:2px;}</style></defs><g transform="translate(-35 -735)"><rect class="a" width="21" height="21" transform="translate(35 735)"/><g transform="translate(-106.196 527.81)"><path class="b" d="M2.042,0H15.405a2,2,0,0,1,2,2V9.193a2,2,0,0,1-2,2H2a2,2,0,0,1-2-2V2.042A2.042,2.042,0,0,1,2.042,0Z" transform="translate(143.196 213.511)"/><path class="b" d="M160.076,214.231l-6.973,4.981a1.243,1.243,0,0,1-1.446,0l-7.037-5.026a.372.372,0,0,1,.216-.675h15.009A.4.4,0,0,1,160.076,214.231Z" transform="translate(-0.48 0)"/></g></g></svg>