<svg xmlns="http://www.w3.org/2000/svg" width="23" height="23.75" viewBox="0 0 23 23.75"><defs><style>.a{fill:none;stroke:#4a5058;stroke-linecap:round;stroke-linejoin:round;stroke-width:1.5px;}.b{fill:rgba(255,255,255,0);}</style></defs><g transform="translate(-34 -455)"><g transform="translate(-1 54)"><g transform="translate(27 32.208)"><circle class="a" cx="2" cy="2" r="2" transform="translate(18 369.792)"/><line class="a" y2="15" transform="translate(20 376.792)"/><path class="a" d="M228.821,464.131h-4.43a2.531,2.531,0,0,1-2.531-2.531h6.328Z" transform="translate(-211.86 -86.702)"/><path class="a" d="M238.86,464.131h4.43a2.531,2.531,0,0,0,2.531-2.531h-6.328Z" transform="translate(-216.287 -86.702)"/><path class="a" d="M239.86,469.6a1.9,1.9,0,1,1,0,3.8" transform="translate(-217.562 -89.64)"/><path class="a" d="M230.758,473.4a1.9,1.9,0,1,1,0-3.8" transform="translate(-213.523 -89.64)"/><path class="a" d="M238.86,475.6a1.9,1.9,0,0,1,0,3.8" transform="translate(-217.195 -91.843)"/><path class="a" d="M231.758,479.4a1.9,1.9,0,0,1,0-3.8" transform="translate(-213.89 -91.843)"/><path class="a" d="M238.86,481.6a1.266,1.266,0,1,1,0,2.531" transform="translate(-217.195 -94.046)"/><path class="a" d="M232.126,484.131a1.266,1.266,0,1,1,0-2.531" transform="translate(-214.257 -94.046)"/></g></g><g transform="translate(-1 191.768)"><rect class="b" width="23" height="23" transform="translate(35 263.232)"/></g></g></svg>