<svg xmlns="http://www.w3.org/2000/svg" width="23" height="23" viewBox="0 0 23 23"><defs><style>.a{fill:none;stroke:#4a5058;stroke-linecap:round;stroke-linejoin:round;stroke-width:1.5px;}.b{fill:rgba(255,255,255,0);}</style></defs><g transform="translate(-34 -626)"><g transform="translate(-133.507 167.8)"><path class="a" d="M175.669,471.19v2.91a.954.954,0,0,0,.954.954h2.507a.954.954,0,0,0,.954-.954v-2.91l.034-.02,2.46,1.443a.954.954,0,0,0,1.312-.352l1.231-2.165a.954.954,0,0,0-.347-1.294l-2.482-1.455v-.04l2.482-1.456a.954.954,0,0,0,.347-1.294l-1.231-2.165a.955.955,0,0,0-1.312-.352l-2.46,1.443-.034-.02v-2.91a.954.954,0,0,0-.954-.954h-2.507a.953.953,0,0,0-.954.954v2.91l-.034.02-2.46-1.443a.955.955,0,0,0-1.312.352l-1.231,2.165a.954.954,0,0,0,.347,1.294l2.483,1.456v.04l-2.483,1.455a.954.954,0,0,0-.347,1.294l1.231,2.165a.954.954,0,0,0,1.312.352l2.46-1.443Z" transform="translate(1 2.147)"/></g><g transform="translate(-1 362.768)"><rect class="b" width="23" height="23" transform="translate(35 263.232)"/></g></g></svg>