<svg xmlns="http://www.w3.org/2000/svg" width="329" height="265" viewBox="0 0 329 265"><defs><style>.a{fill:rgba(255,255,255,0);}.b{fill:#fafafa;}.c{fill:#2eb9ae;}.d{fill:#cedbf0;}.e{fill:#fff;}.f{opacity:0.3;}.g{fill:rgba(45,87,149,0.23);}.h{fill:#e8f0fd;}.i{fill:#2d5795;}.j{fill:#4a5058;}</style></defs><g transform="translate(-43 -216)"><rect class="a" width="329" height="265" transform="translate(43 216)"/><path class="b" d="M271.069,63.473c-19.4-.672-37.881-6.916-55.527-13.748s-35.123-14.4-54.061-18.022c-12.181-2.328-26.112-2.657-35.924,3.853-9.446,6.276-12.5,17.081-14.138,27.117-1.235,7.55-1.961,15.5,1.421,22.562,2.35,4.908,6.517,9.032,9.4,13.733,10.034,16.354,2.941,36.523-7.929,52.492-5.1,7.493-11.017,14.645-14.953,22.613s-5.756,17.111-2.311,25.246c3.412,8.07,11.545,14.119,20.356,18.378,17.894,8.652,38.973,11.127,59.541,12.529,45.517,3.105,91.274,1.76,136.911.415,16.89-.5,33.852-1,50.467-3.607,9.227-1.447,18.752-3.739,25.452-9.28,8.5-7.033,10.61-18.94,4.911-27.76-9.557-14.791-35.975-18.465-42.663-34.338-3.675-8.739.1-18.471,5.444-26.576,11.464-17.383,30.677-32.634,31.688-52.5.7-13.647-8.541-27.314-22.823-33.773-14.969-6.767-35.729-5.918-46.767,5.287C308.186,59.627,288.2,64.065,271.069,63.473Z" transform="translate(-39.226 207.768)"/><g transform="translate(100.766 320.903)"><path class="c" d="M1640.865,831.877a1.834,1.834,0,0,1-1.88,1.773l-2.627-.087-.085,2.627a1.826,1.826,0,0,1-3.65-.12l.087-2.624-2.627-.087a1.826,1.826,0,0,1,.117-3.65l2.627.087.087-2.627a1.826,1.826,0,0,1,3.65.117l-.087,2.627,2.627.087A1.83,1.83,0,0,1,1640.865,831.877Z" transform="translate(-1628.322 -825.406)"/></g><g transform="translate(291.437 384.412)"><path class="c" d="M1716.432,854.393a1.835,1.835,0,0,1-.989,2.387l-2.43,1,1,2.432a1.826,1.826,0,0,1-3.379,1.386l-1-2.432-2.432,1a1.826,1.826,0,0,1-1.385-3.378l2.43-1-1-2.429a1.826,1.826,0,0,1,3.378-1.388l1,2.432,2.432-1A1.83,1.83,0,0,1,1716.432,854.393Z" transform="translate(-1704.687 -850.842)"/></g><g transform="translate(158.644 342.71)"><path class="d" d="M1696.563,857.176a7.476,7.476,0,0,1-4.3,6.829l-4.859,2.26v3.151a10.835,10.835,0,0,1-10.821,10.819H1651.5V834.14h25.078a10.835,10.835,0,0,1,10.821,10.819v3.151l4.809,2.237A7.509,7.509,0,0,1,1696.563,857.176Z" transform="translate(-1651.503 -834.14)"/></g><g transform="translate(158.643 275.115)"><rect class="e" width="96.882" height="140.261" rx="4.016" transform="translate(0 -3)"/></g><g transform="translate(158.644 301.712)"><g class="f" transform="translate(51.363)"><path class="g" d="M1717.592,817.72v46.095h-25.535a10.836,10.836,0,0,1-10.821-10.822v-3.149l-4.809-2.237a7.552,7.552,0,0,1-.05-13.658l4.859-2.26v-3.151a10.835,10.835,0,0,1,10.821-10.819Z" transform="translate(-1672.074 -817.72)"/></g><g class="f" transform="translate(0 40.998)"><path class="g" d="M1696.563,857.176a7.476,7.476,0,0,1-4.3,6.829l-4.859,2.26v3.151a10.835,10.835,0,0,1-10.821,10.819H1651.5V834.14h25.078a10.835,10.835,0,0,1,10.821,10.819v3.151l4.809,2.237A7.509,7.509,0,0,1,1696.563,857.176Z" transform="translate(-1651.503 -834.14)"/></g></g><g transform="translate(216.018 307.72)"><path class="e" d="M1683.641,824.935v3.927a4.806,4.806,0,0,1-2.784,4.362l-5.51,2.557a1.536,1.536,0,0,0,0,2.764l5.51,2.557a4.807,4.807,0,0,1,2.784,4.362v3.928a4.812,4.812,0,0,0,4.812,4.809h59.3a4.811,4.811,0,0,0,4.809-4.809V824.935a4.811,4.811,0,0,0-4.809-4.809h-59.3A4.812,4.812,0,0,0,1683.641,824.935Z" transform="translate(-1674.481 -820.126)"/></g><g transform="translate(284.333 307.715)"><path class="h" d="M1706.8,820.124h-4.954a4.824,4.824,0,0,1,4.809,4.809V849.39a4.809,4.809,0,0,1-4.809,4.809h4.954a4.809,4.809,0,0,0,4.809-4.809V824.933A4.824,4.824,0,0,0,1706.8,820.124Z" transform="translate(-1701.842 -820.124)"/></g><g transform="translate(233.489 317.268)"><g transform="translate(0 10.771)"><path class="i" d="M1733.588,830.379a2.093,2.093,0,0,1-2.092,2.092h-47.9a2.1,2.1,0,1,1,0-4.207h47.9A2.1,2.1,0,0,1,1733.588,830.379Z" transform="translate(-1681.479 -828.264)"/></g><path class="i" d="M1733.588,826.04a2.093,2.093,0,0,1-2.092,2.092h-47.9a2.091,2.091,0,1,1,0-4.182h47.9A2.093,2.093,0,0,1,1733.588,826.04Z" transform="translate(-1681.479 -823.95)"/></g><g transform="translate(119.612 348.72)"><path class="e" d="M1699.978,836.547h-59.3a4.808,4.808,0,0,0-4.809,4.809V865.81a4.808,4.808,0,0,0,4.809,4.809h59.3a4.808,4.808,0,0,0,4.809-4.809v-3.928a4.811,4.811,0,0,1,2.786-4.362l5.51-2.554a1.539,1.539,0,0,0,0-2.766l-5.51-2.554a4.815,4.815,0,0,1-2.786-4.365v-3.925A4.808,4.808,0,0,0,1699.978,836.547Z" transform="translate(-1635.871 -836.547)"/></g><g transform="translate(119.612 348.713)"><path class="h" d="M1635.871,841.355V865.81a4.808,4.808,0,0,0,4.809,4.809h4.954a4.808,4.808,0,0,1-4.809-4.809V841.355a4.825,4.825,0,0,1,4.809-4.811h-4.954A4.825,4.825,0,0,0,1635.871,841.355Z" transform="translate(-1635.871 -836.544)"/></g><path class="c" d="M1703.8,816.436l2.627.085-.085,2.627a1.826,1.826,0,0,0,3.65.12l.085-2.627,2.627.085a1.826,1.826,0,0,0,.12-3.65l-2.627-.085.085-2.627a1.826,1.826,0,0,0-3.65-.12l-.085,2.627-2.627-.085a1.826,1.826,0,0,0-.12,3.65Z" transform="translate(-1417.206 -529.831)"/><path class="j" d="M1635.9,862.246h-8.592a2.5,2.5,0,1,0,0,4.994h8.592a2.5,2.5,0,1,0,0-4.994Z" transform="translate(-1532.812 -449.359)"/><path class="j" d="M1791.5,946.332h-16.155a12.4,12.4,0,0,0,2.577-7.52V877.736h31.051a7.313,7.313,0,0,0,7.308-7.306V845.973a7.314,7.314,0,0,0-7.308-7.306h-31.051V818.585a12.527,12.527,0,0,0-12.514-12.514h-76.843a12.527,12.527,0,0,0-12.514,12.514v61.081h-31.94a7.316,7.316,0,0,0-7.306,7.308v24.454a7.314,7.314,0,0,0,7.306,7.306h31.94v20.077a12.4,12.4,0,0,0,2.577,7.52h-42.556a2.5,2.5,0,0,0,0,4.994H1791.5a2.5,2.5,0,0,0,0-4.994Zm19.787-100.358V870.43a2.317,2.317,0,0,1-2.315,2.312h-59.3a2.315,2.315,0,0,1-2.31-2.312V866.5a7.327,7.327,0,0,0-4.235-6.627l-3.608-1.673,3.608-1.675a7.328,7.328,0,0,0,4.235-6.627v-3.927a2.315,2.315,0,0,1,2.31-2.312h59.3A2.317,2.317,0,0,1,1811.29,845.973Zm-130.243-27.388a7.529,7.529,0,0,1,7.521-7.521h76.843a7.529,7.529,0,0,1,7.521,7.521v12h-91.885ZM1641.8,911.428V886.974a2.316,2.316,0,0,1,2.312-2.315h59.3a2.316,2.316,0,0,1,2.312,2.315V890.9a7.33,7.33,0,0,0,4.232,6.629l3.61,1.673-3.61,1.673a7.329,7.329,0,0,0-4.232,6.627v3.928a2.314,2.314,0,0,1-2.312,2.312h-59.3A2.314,2.314,0,0,1,1641.8,911.428Zm61.61,7.306a7.314,7.314,0,0,0,7.306-7.306V907.5a2.319,2.319,0,0,1,1.341-2.095l5.54-2.572a4.033,4.033,0,0,0-.03-7.281l-5.51-2.557a2.32,2.32,0,0,1-1.341-2.1v-3.925a7.316,7.316,0,0,0-7.306-7.308h-22.364V830.59h91.885v8.077h-23.253a7.313,7.313,0,0,0-7.3,7.306V849.9a2.32,2.32,0,0,1-1.341,2.1l-5.536,2.569a4.033,4.033,0,0,0,.025,7.283l5.511,2.554a2.323,2.323,0,0,1,1.341,2.1v3.928a7.312,7.312,0,0,0,7.3,7.306h23.253V931.8h-91.885V918.734Zm-14.844,27.6a7.528,7.528,0,0,1-7.521-7.52V931.8h91.885v7.009a7.529,7.529,0,0,1-7.521,7.52Z" transform="translate(-1519.691 -533.445)"/><path class="j" d="M1735,862.246h-29.508a2.5,2.5,0,0,0,0,4.994H1735a2.5,2.5,0,0,0,0-4.994Z" transform="translate(-1415.785 -449.359)"/><g transform="translate(128.109 358.266)"><g transform="translate(0 10.771)"><path class="i" d="M1639.274,846.8a2.093,2.093,0,0,0,2.092,2.092h47.9a2.1,2.1,0,1,0,0-4.21h-47.9A2.1,2.1,0,0,0,1639.274,846.8Z" transform="translate(-1639.274 -844.684)"/></g><path class="i" d="M1639.274,842.462a2.093,2.093,0,0,0,2.092,2.092h47.9a2.093,2.093,0,1,0,0-4.185h-47.9A2.092,2.092,0,0,0,1639.274,842.462Z" transform="translate(-1639.274 -840.37)"/></g><g transform="translate(186 274.386)"><path class="j" d="M1711.888,815.109a5.279,5.279,0,0,1-5.454,5.134h-31.685a5.141,5.141,0,1,1,0-10.263h31.685A5.279,5.279,0,0,1,1711.888,815.109Z" transform="translate(-1669.294 -809.98)"/></g><rect class="e" width="9" height="4" rx="2" transform="translate(191 278)"/><rect class="e" width="21" height="4" rx="2" transform="translate(202 278)"/><rect class="j" width="21" height="4" rx="2" transform="translate(197 405)"/></g></svg>