<svg xmlns="http://www.w3.org/2000/svg" width="329" height="265" viewBox="0 0 329 265"><defs><style>.a{fill:#fafafa;}.b{fill:#2eb9ae;}.c{fill:#fff;}.d{fill:#f0f3f7;}.e{opacity:0.3;}.f{fill:none;}.g{fill:#e8f0fd;}.h{fill:#4a5058;}.i{fill:#2d5795;}.j{fill:rgba(255,255,255,0);}</style></defs><g transform="translate(-43 -216)"><path class="a" d="M271.069,63.473c-19.4-.672-37.881-6.916-55.527-13.748s-35.123-14.4-54.061-18.022c-12.181-2.328-26.112-2.657-35.924,3.853-9.446,6.276-12.5,17.081-14.138,27.117-1.235,7.55-1.961,15.5,1.421,22.562,2.35,4.908,6.517,9.032,9.4,13.733,10.034,16.354,2.941,36.523-7.929,52.492-5.1,7.493-11.017,14.645-14.953,22.613s-5.756,17.111-2.311,25.246c3.412,8.07,11.545,14.119,20.356,18.378,17.894,8.652,38.973,11.127,59.541,12.529,45.517,3.105,91.274,1.76,136.911.415,16.89-.5,33.852-1,50.467-3.607,9.227-1.447,18.752-3.739,25.452-9.28,8.5-7.033,10.61-18.94,4.911-27.76-9.557-14.791-35.975-18.465-42.663-34.338-3.675-8.739.1-18.471,5.444-26.576,11.464-17.383,30.677-32.634,31.688-52.5.7-13.647-8.541-27.314-22.823-33.773-14.969-6.767-35.729-5.918-46.767,5.287C308.186,59.627,288.2,64.065,271.069,63.473Z" transform="translate(-39.226 207.768)"/><g transform="translate(267.711 353.763)"><path class="b" d="M882.8,4951.93a1.807,1.807,0,0,1-1.852,1.748l-2.588-.085-.084,2.586a1.8,1.8,0,0,1-3.6-.115l.084-2.589-2.586-.087a1.8,1.8,0,0,1,.116-3.594l2.588.084.086-2.588a1.8,1.8,0,0,1,3.594.119l-.084,2.587,2.588.084A1.8,1.8,0,0,1,882.8,4951.93Z" transform="translate(-870.44 -4945.556)"/></g><g transform="translate(157.316 275.874)"><path class="c" d="M925.84,4923.735v120.743a9.891,9.891,0,0,1-9.2,9.864h-.074a4.891,4.891,0,0,1-.615.026h-80.52a9.9,9.9,0,0,1-9.865-9.89V4923.735a9.874,9.874,0,0,1,9.865-9.84h80.52A9.848,9.848,0,0,1,925.84,4923.735Z" transform="translate(-825.566 -4913.895)"/></g><g transform="translate(237.266 275.874)"><path class="d" d="M878.385,4923.735v120.743a9.891,9.891,0,0,1-9.2,9.864h-.074a4.893,4.893,0,0,1-.615.026H858.064a4.889,4.889,0,0,0,.615-.026h.074a9.891,9.891,0,0,0,9.2-9.864V4923.735a9.848,9.848,0,0,0-9.889-9.84H868.5A9.848,9.848,0,0,1,878.385,4923.735Z" transform="translate(-858.064 -4913.895)"/></g><g class="e" transform="translate(157.316 357.107)"><path class="d" d="M829.074,5003.755H839.52c.022-.022.047-.039.069-.061a34.046,34.046,0,0,0-14.023-56.779v49.35A9.839,9.839,0,0,0,829.074,5003.755Z" transform="translate(-825.566 -4946.915)"/></g><g transform="translate(226.37 317.643)"><path class="f" d="M853.635,4949.23v-18.357h9.278v18.357" transform="translate(-853.635 -4930.873)"/></g><g transform="translate(232.04 311.567)"><path class="f" d="M863.006,4931.438a3.03,3.03,0,0,1-3.033,3.033H855.94a3.034,3.034,0,0,0,0-6.067h4.032A3.032,3.032,0,0,1,863.006,4931.438Z" transform="translate(-855.94 -4928.403)"/></g><g transform="translate(178.525 318.412)"><path class="f" d="M892.01,4951.157v37.468a4.812,4.812,0,0,1-4.812,4.811H839a4.812,4.812,0,0,1-4.812-4.811v-37.468l28.911-19.972Z" transform="translate(-834.187 -4931.186)"/></g><g transform="translate(171.524 313.645)"><path class="f" d="M835.255,4958.749a3.916,3.916,0,0,1-3.7-2.64,4.021,4.021,0,0,1,2.005-4.81l31.861-21.594a3.9,3.9,0,0,1,3.67,0l31.905,21.619a3.979,3.979,0,0,1,2.027,4.581,3.922,3.922,0,0,1-5.6,2.387l-28.791-19.913a2.778,2.778,0,0,0-2.745,0l-28.791,19.913A3.9,3.9,0,0,1,835.255,4958.749Z" transform="translate(-831.341 -4929.248)"/></g><g transform="translate(208.858 313.909)"><path class="f" d="M880.855,4955.753a3.93,3.93,0,0,1-5.6,2.387l-4.362-2.487a3.919,3.919,0,0,0,3.112-7.182l-27.487-19.115a4.26,4.26,0,0,1,.411.192l31.905,21.615A3.986,3.986,0,0,1,880.855,4955.753Z" transform="translate(-846.517 -4929.356)"/></g><g transform="translate(120.735 363.002)"><path class="c" d="M864.036,4976.285a26.671,26.671,0,1,1-26.368-26.972A26.68,26.68,0,0,1,864.036,4976.285Z" transform="translate(-810.696 -4949.311)"/><g transform="translate(22.497 0.007)"><path class="g" d="M850.681,4976.288a26.679,26.679,0,0,1-26.973,26.371,27.29,27.29,0,0,1-3.867-.317,26.684,26.684,0,0,0,.6-52.8,27.365,27.365,0,0,1,3.875-.229A26.675,26.675,0,0,1,850.681,4976.288Z" transform="translate(-819.841 -4949.314)"/></g></g><path class="b" d="M807.679,4921.3l-2.578-.249.249-2.578a1.8,1.8,0,0,0-3.582-.345l-.248,2.575-2.578-.249a1.8,1.8,0,0,0-.344,3.583l2.578.249-.248,2.577a1.8,1.8,0,0,0,3.582.345l.248-2.575,2.576.249a1.8,1.8,0,0,0,.347-3.583Z" transform="translate(-709.993 -4634.205)"/><path class="b" d="M887.378,4922.242a1.8,1.8,0,0,0-1.732-1.85l-2.588-.086.084-2.585a1.8,1.8,0,0,0-3.6-.119l-.084,2.588-2.588-.086a1.8,1.8,0,0,0-.118,3.6l2.588.087-.084,2.589a1.8,1.8,0,0,0,3.6.117l.084-2.591,2.588.087A1.8,1.8,0,0,0,887.378,4922.242Z" transform="translate(-596.037 -4635.141)"/><path class="h" d="M802.19,4970l-7.215-.006h0a2.46,2.46,0,0,0,0,4.92l7.215.006h0a2.46,2.46,0,0,0,0-4.92Z" transform="translate(-716.512 -4556.116)"/><path class="h" d="M971.076,5053.5l-13.415-.009a12.176,12.176,0,0,0,2.637-7.521V4925.211a12.33,12.33,0,0,0-12.315-12.315H867.451a12.331,12.331,0,0,0-12.318,12.315v75.8a29.219,29.219,0,0,0-7.459-.993,29.126,29.126,0,0,0-16.131,53.374l-25.45-.02h0a2.46,2.46,0,0,0,0,4.92l164.982.127h0a2.46,2.46,0,0,0,0-4.92Zm-96.038-14.425h80.34v6.895a7.4,7.4,0,0,1-7.4,7.4H867.451a7.187,7.187,0,0,1-2.8-.588A29.215,29.215,0,0,0,875.038,5039.078Zm-14.984-113.866a7.4,7.4,0,0,1,7.4-7.4h80.532a7.405,7.405,0,0,1,7.4,7.4v11.816H860.054Zm0,11.816h95.324v102.05h-80.34c.263-1.525,1.757-8,1.774-9.592a29.025,29.025,0,0,0-16.758-26.687Zm-29.293,74.815a24.212,24.212,0,1,1-.389,34.231A24.192,24.192,0,0,1,830.761,5011.842Z" transform="translate(-700.277 -4639.48)"/><path class="h" d="M890.182,4970.067l-8.775-.007h0a2.46,2.46,0,0,0,0,4.92l8.775.007h0a2.46,2.46,0,0,0,0-4.92Z" transform="translate(-590.312 -4556.014)"/><g transform="translate(186 274.386)"><path class="h" d="M1711.888,815.109a5.279,5.279,0,0,1-5.454,5.134h-31.685a5.141,5.141,0,1,1,0-10.263h31.685A5.279,5.279,0,0,1,1711.888,815.109Z" transform="translate(-1669.294 -809.98)"/></g><rect class="c" width="9" height="4" rx="2" transform="translate(191 278)"/><rect class="c" width="21" height="4" rx="2" transform="translate(202 278)"/><rect class="h" width="21" height="4" rx="2" transform="translate(197 405)"/><path class="i" d="M686.55,2834.938c0,5.289,8.3,18.9,9.26,20.42a1.7,1.7,0,0,0,2.91,0c.941-1.523,9.226-15.131,9.226-20.42a10.7,10.7,0,1,0-21.4,0Zm10.715-7.275a7.276,7.276,0,0,1,7.257,7.275c0,2.807-4.005,10.595-7.257,16.192-3.269-5.6-7.292-13.368-7.292-16.192A7.294,7.294,0,0,1,697.265,2827.663Z" transform="translate(-550 -2450.279)"/><ellipse class="i" cx="4.517" cy="4.517" rx="4.517" ry="4.517" transform="translate(142.736 379.795)"/><rect class="j" width="329" height="265" transform="translate(43 216)"/></g></svg>